<svg width="24" height="24" viewBox="0 0 24 24" fill="none" xmlns="http://www.w3.org/2000/svg">
  <path d="M21 12C21 16.9706 16.9706 21 12 21C7.02944 21 3 16.9706 3 12C3 7.02944 7.02944 3 12 3C16.9706 3 21 7.02944 21 12Z" stroke="currentColor" stroke-width="2" stroke-linecap="round" stroke-linejoin="round"/>
  <path d="M12 17V17.01" stroke="currentColor" stroke-width="2" stroke-linecap="round" stroke-linejoin="round"/>
  <path d="M12 13.5C11.9816 13.1754 12.0692 12.8536 12.2495 12.5832C12.4299 12.3128 12.6933 12.1091 13 12C13.3759 11.8563 13.7132 11.6247 13.9856 11.3223C14.2579 11.0199 14.4577 10.6539 14.5693 10.2559C14.6809 9.85789 14.7013 9.43928 14.6287 9.03147C14.5562 8.62366 14.3927 8.24026 14.1513 7.91231C13.9099 7.58437 13.5976 7.32266 13.2384 7.14776C12.8792 6.97287 12.4836 6.88958 12.0839 6.90583C11.6841 6.92208 11.2968 7.03739 10.9546 7.24C10.6124 7.44262 10.3248 7.72628 10.12 8.06" stroke="currentColor" stroke-width="2" stroke-linecap="round" stroke-linejoin="round"/>
</svg>

