<svg width="43" height="43" viewBox="0 0 43 43" fill="none" xmlns="http://www.w3.org/2000/svg">
<g clip-path="url(#clip0_368_927)">
<path d="M3.93106 35.1382C2.92025 35.1382 2.10095 35.9578 2.10095 36.9683V41.1701C2.10095 42.1806 2.92025 43.0002 3.93106 43.0002C4.94171 43.0002 5.76116 42.1806 5.76116 41.1701V36.9683C5.76116 35.9578 4.94157 35.1382 3.93106 35.1382Z" fill="white"/>
<path d="M12.7155 26.3535C11.7049 26.3535 10.8854 27.1731 10.8854 28.1836V41.1699C10.8854 42.1804 11.7049 43 12.7155 43C13.7262 43 14.5456 42.1804 14.5456 41.1699V28.1836C14.5456 27.1731 13.7261 26.3535 12.7155 26.3535Z" fill="white"/>
<path d="M21.5001 17.5688C20.4894 17.5688 19.67 18.3883 19.67 19.399V41.1699C19.67 42.1805 20.4894 42.9998 21.5001 42.9998C22.5106 42.9998 23.3302 42.1805 23.3302 41.1699V19.399C23.3302 18.3883 22.5106 17.5688 21.5001 17.5688Z" fill="white"/>
<path d="M30.2846 8.78467C29.2739 8.78467 28.4545 9.60412 28.4545 10.6148V41.1702C28.4545 42.1809 29.2739 43.0002 30.2846 43.0002C31.2952 43.0002 32.1147 42.1809 32.1147 41.1702V10.6148C32.1147 9.60412 31.2952 8.78467 30.2846 8.78467Z" fill="white"/>
<path d="M39.0691 0C38.0584 0 37.239 0.819448 37.239 1.8301V41.17C37.239 42.1807 38.0584 43 39.0691 43C40.0797 43 40.8992 42.1807 40.8992 41.17V1.8301C40.8992 0.819448 40.0797 0 39.0691 0Z" fill="white"/>
</g>
<defs>
<clipPath id="clip0_368_927">
<rect width="43" height="43" fill="white"/>
</clipPath>
</defs>
</svg>
