<svg width="40" height="41" viewBox="0 0 40 41" fill="none" xmlns="http://www.w3.org/2000/svg">
<path fill-rule="evenodd" clip-rule="evenodd" d="M39.8942 0.968217C26.6168 0.884672 13.3227 0.856851 0.0119848 0.884672C13.3226 0.773306 26.6498 0.773306 39.9934 0.884672C39.9811 0.935383 39.9481 0.963204 39.8942 0.968217Z" fill="#B3CED6"/>
<path fill-rule="evenodd" clip-rule="evenodd" d="M39.9938 15.3128C40.0104 19.0508 39.9938 22.7887 39.9442 26.5265C39.9166 26.4509 39.867 26.396 39.7954 26.3616C39.861 22.6706 39.9271 18.9877 39.9938 15.3128Z" fill="#678B9D"/>
<path fill-rule="evenodd" clip-rule="evenodd" d="M39.8946 0.966039C37.5005 2.99702 35.0864 5.01712 32.6523 7.02634C22.5991 7.08134 12.5458 7.08134 2.49262 7.02634C1.65232 6.4105 0.842071 5.76464 0.0619879 5.08869C0.0123816 3.68724 -0.00418566 2.28554 0.0123816 0.883586C13.3231 0.856129 26.6172 0.883586 39.8946 0.966039Z" fill="#36506B"/>
<path fill-rule="evenodd" clip-rule="evenodd" d="M39.9936 15.3129C39.927 18.9877 39.8609 22.6707 39.7952 26.3616C37.5707 24.5404 35.3881 22.699 33.2474 20.8372C35.435 18.9055 37.6672 17.0091 39.944 15.148C39.9901 15.197 40.0066 15.252 39.9936 15.3129Z" fill="#6C96A6"/>
<path fill-rule="evenodd" clip-rule="evenodd" d="M39.9935 40.7084C26.6829 40.7909 13.3558 40.8183 0.0120459 40.7909C0.0120459 38.7295 0.0120459 36.6682 0.0120459 34.6069C10.8921 34.5931 21.7721 34.6069 32.652 34.6481C35.0861 36.6849 37.5332 38.705 39.9935 40.7084Z" fill="#40C1C9"/>
<path fill-rule="evenodd" clip-rule="evenodd" d="M29.6759 9.37916C29.5008 9.29849 29.3024 9.27046 29.0807 9.29522C29.2982 9.18634 29.5298 9.18634 29.7751 9.29522C29.7628 9.34617 29.7298 9.37413 29.6759 9.37916Z" fill="#B3CFD6"/>
<path fill-rule="evenodd" clip-rule="evenodd" d="M29.6761 9.37629C27.2052 11.3887 24.758 13.4088 22.3346 15.4366C19.5567 15.4916 16.7789 15.4916 14.001 15.4366C11.5538 13.4027 9.10669 11.3689 6.65949 9.33506C14.1332 9.29384 21.607 9.28007 29.0808 9.29384C29.3026 9.26951 29.501 9.29705 29.6761 9.37629Z" fill="#5E7288"/>
<path fill-rule="evenodd" clip-rule="evenodd" d="M28.188 32.2982C28.2418 32.3033 28.2749 32.3311 28.2872 32.3818C18.8458 32.4931 9.4209 32.4931 0.0124669 32.3818C0.0455041 32.3818 0.0786404 32.3818 0.111678 32.3818C9.48707 32.4096 18.8459 32.3817 28.188 32.2982Z" fill="#DBF0F1"/>
<path fill-rule="evenodd" clip-rule="evenodd" d="M28.1879 32.2982C18.8458 32.3806 9.48698 32.4081 0.111582 32.3806C0.111582 30.3468 0.111582 28.313 0.111582 26.2791C7.05625 26.2791 14.0009 26.2791 20.9456 26.2791C23.3596 28.2854 25.7738 30.2919 28.1879 32.2982Z" fill="#65CDD3"/>
<path fill-rule="evenodd" clip-rule="evenodd" d="M20.9457 17.7887C19.4575 17.6773 17.9694 17.6773 16.4812 17.7887C16.4274 17.7837 16.3943 17.7559 16.382 17.7052C17.9363 17.5938 19.4905 17.5938 21.0449 17.7052C21.0326 17.7559 20.9995 17.7837 20.9457 17.7887Z" fill="#DBF0F1"/>
<path fill-rule="evenodd" clip-rule="evenodd" d="M20.9456 17.7864C20.1885 18.3748 19.4444 18.9798 18.7134 19.6016C17.9824 18.9798 17.2384 18.3748 16.4812 17.7864C17.9693 17.6765 19.4575 17.6765 20.9456 17.7864Z" fill="#6E96A5"/>
<path fill-rule="evenodd" clip-rule="evenodd" d="M20.9456 26.2791C14.001 26.2791 7.05629 26.2791 0.111625 26.2791C0.111625 28.313 0.111625 30.3468 0.111625 32.3806C0.0785879 32.3806 0.0454515 32.3806 0.0124143 32.3806C0.0124143 30.3193 0.0124143 28.258 0.0124143 26.1967C7.00688 26.1692 13.9846 26.1967 20.9456 26.2791Z" fill="#8BD9DD"/>
<path fill-rule="evenodd" clip-rule="evenodd" d="M19.7551 23.888C13.1909 23.9704 6.61001 23.9979 0.0123802 23.9705C-0.020657 21.9359 0.0123802 19.9021 0.111589 17.869C2.17425 17.8145 4.24118 17.7869 6.31218 17.7865C8.38318 17.7869 10.4501 17.8145 12.5128 17.869C14.8932 19.9023 17.3073 21.9087 19.7551 23.888Z" fill="#8BD9DD"/>
<path fill-rule="evenodd" clip-rule="evenodd" d="M9.7348 15.4777C6.51089 15.56 3.27011 15.5876 0.0122726 15.5602C-0.00429556 12.8666 0.0122726 10.1731 0.0618771 7.4798C3.27309 10.1624 6.4974 12.8284 9.7348 15.4777Z" fill="#678B9D"/>
</svg>
