<svg width="24" height="24" viewBox="0 0 24 24" fill="none" xmlns="http://www.w3.org/2000/svg">
  <path d="M17.05 12.536C17.0346 10.7273 17.9772 9.32455 19.8818 8.25818C18.8591 6.79636 17.3 5.96727 15.2591 5.76C13.3182 5.56 11.1955 6.82909 10.4864 6.82909C9.73636 6.82909 7.86818 5.81818 6.38182 5.81818C3.49091 5.86909 0.409091 8.16 0.409091 12.8364C0.409091 14.1455 0.663636 15.5 1.17273 16.9C1.84091 18.7727 4.05455 22.9636 6.35455 22.8818C7.63636 22.8409 8.54545 21.9182 10.2 21.9182C11.8091 21.9182 12.6545 22.8818 14.0864 22.8818C16.4 22.8409 18.4091 19.0364 19.0364 17.1591C15.6909 15.5818 17.05 12.5818 17.05 12.536ZM14.0455 3.82909C15.6364 1.97273 15.4773 1.13636 15.4364 1C14.1682 1.07273 12.7 1.88182 11.8364 2.85455C10.8955 3.72727 10.3182 4.84545 10.4364 5.75273C11.8182 5.85455 12.9 5.09091 14.0455 3.82909Z" fill="black"/>
</svg>

