<svg width="29" height="29" viewBox="0 0 29 29" fill="none" xmlns="http://www.w3.org/2000/svg">
<g clip-path="url(#clip0_31_187)">
<path fill-rule="evenodd" clip-rule="evenodd" d="M26.8854 21.2772C26.2091 22.7845 25.8838 23.4581 25.0124 24.7932C23.7972 26.6569 22.0834 28.9776 19.9581 28.9948C18.0715 29.0152 17.585 27.7584 15.024 27.7738C12.4629 27.7874 11.9289 29.0186 10.0391 28.9998C7.91535 28.981 6.29158 26.8871 5.0763 25.0234C1.67627 19.8158 1.31853 13.7027 3.41514 10.4509C4.9066 8.14198 7.25923 6.79166 9.46957 6.79166C11.7189 6.79166 13.134 8.033 14.9968 8.033C16.8036 8.033 17.9036 6.78827 20.5054 6.78827C22.4749 6.78827 24.5616 7.86761 26.0462 9.72973C21.1783 12.4136 21.9665 19.4064 26.8854 21.2772ZM18.5325 4.70797C19.4784 3.48702 20.1953 1.76152 19.9361 0C18.3902 0.107391 16.5834 1.09634 15.5292 2.38548C14.5681 3.55341 13.7783 5.29114 14.0867 6.97745C15.7766 7.03046 17.5207 6.0175 18.5325 4.70797Z" fill="#4F9AB6"/>
</g>
<defs>
<clipPath id="clip0_31_187">
<rect width="29" height="29" fill="white"/>
</clipPath>
</defs>
</svg>

