<svg width="45" height="49" viewBox="0 0 45 49" fill="none" xmlns="http://www.w3.org/2000/svg">
<path d="M22.5 48.3061L2.46843 30.494C-0.822811 27.5674 -0.822811 22.8073 2.46843 19.8832C5.54588 17.1468 10.8456 17.0367 14.0609 19.5956V7.50405C14.0609 3.36682 17.8473 0 22.5 0C27.1527 0 30.9391 3.36682 30.9391 7.50405V19.5956C34.1544 17.0367 39.4541 17.1468 42.5316 19.8832C45.8228 22.8073 45.8228 27.5674 42.5316 30.494L22.5 48.3061ZM8.43486 22.6873C7.68097 22.6873 6.97771 22.9474 6.44605 23.4202C5.34616 24.3957 5.34616 25.979 6.44605 26.9571L22.5 41.2323L38.5539 26.9571C39.6538 25.979 39.6538 24.3957 38.5539 23.4202C37.4878 22.4721 35.6425 22.4721 34.5763 23.4202L25.313 31.6571V7.50405C25.313 6.12581 24.0528 5.0027 22.5 5.0027C20.9472 5.0027 19.687 6.12581 19.687 7.50405V31.6571L10.4237 23.4202C9.89201 22.9474 9.18875 22.6873 8.43486 22.6873Z" fill="black"/>
</svg>

