<svg width="41" height="41" viewBox="0 0 41 41" fill="none" xmlns="http://www.w3.org/2000/svg">
<g clip-path="url(#clip0_368_924)">
<path d="M20.5 0C26.1614 0 31.2859 2.29389 34.9952 6.00484C38.7044 9.71407 41 14.8404 41 20.5C41 26.1596 38.7061 31.2859 34.9952 34.9952C31.2859 38.7044 26.1596 41 20.5 41C14.8386 41 9.71407 38.7061 6.00484 34.9952C2.29389 31.2859 0 26.1596 0 20.5C0 14.8404 2.29389 9.71407 6.00484 6.00484C9.71407 2.29389 14.8386 0 20.5 0ZM18.824 10.3907C18.824 9.77103 19.3263 9.26875 19.9459 9.26875C20.5656 9.26875 21.0679 9.77103 21.0679 10.3907V20.7468L28.8591 25.3657C29.3908 25.6798 29.5685 26.3668 29.2544 26.9001C28.9403 27.4317 28.2533 27.6095 27.72 27.2954L19.4368 22.3848C19.0726 22.1984 18.824 21.8204 18.824 21.3855V10.3907ZM33.4089 7.59106C30.1053 4.28745 25.5417 2.24383 20.5 2.24383C15.4583 2.24383 10.8947 4.28745 7.59106 7.59106C4.28745 10.8947 2.24383 15.4583 2.24383 20.5C2.24383 25.5417 4.28745 30.1053 7.59106 33.4089C10.8947 36.7126 15.4583 38.7562 20.5 38.7562C25.5417 38.7562 30.1053 36.7126 33.4089 33.4089C36.7126 30.1053 38.7562 25.5417 38.7562 20.5C38.7562 15.4583 36.7126 10.8947 33.4089 7.59106Z" fill="white"/>
</g>
<defs>
<clipPath id="clip0_368_924">
<rect width="41" height="41" fill="white"/>
</clipPath>
</defs>
</svg>

