<svg width="20" height="20" viewBox="0 0 20 20" fill="none" xmlns="http://www.w3.org/2000/svg">
<path d="M15.662 10.1206C15.6184 10.1516 15.6053 10.1536 15.6119 10.1628C15.604 10.1687 15.6357 10.1859 15.7025 10.1514C15.728 10.1354 15.7494 10.1137 15.7651 10.0881C15.7809 10.0625 15.7905 10.0336 15.7933 10.0037C15.796 9.97376 15.7919 9.94359 15.7811 9.91553C15.7703 9.88747 15.7532 9.86226 15.7311 9.84188C15.7023 9.8142 15.6664 9.79494 15.6274 9.78618C15.6109 9.78153 15.62 9.78069 15.615 9.77775L15.6036 9.7628C15.558 9.71196 15.5044 9.66887 15.445 9.63524C15.351 9.58682 15.261 9.53093 15.1759 9.46811C14.903 9.32418 14.6501 9.14515 14.4236 8.93558C13.8229 8.40182 13.2838 7.80255 12.8163 7.14893C12.1402 6.22961 11.5578 5.24484 11.078 4.20938C10.9404 3.92831 10.8294 3.63332 10.712 3.33608C10.5773 2.98863 10.3997 2.09969 10.2276 1.7365L10.0948 1.40054C10.0519 1.29453 9.99635 1.13633 9.9883 1.17421C9.94837 1.15624 9.90667 1.14253 9.86386 1.13332L9.74801 1.17101C9.74426 1.16193 9.72085 1.19279 9.69231 1.23426L9.61537 1.34068L9.46113 1.55375C9.43916 1.71068 9.42123 1.89036 9.39586 2.02906L9.30427 2.35956L9.12082 3.02173C9.08429 3.17081 9.0346 3.31635 8.97235 3.45664L8.84071 3.78513C8.65299 4.21901 8.447 4.64477 8.22254 5.05581C7.7895 5.85016 7.29527 6.6096 6.74435 7.32723C6.27251 7.9606 5.72792 8.53635 5.12176 9.04266L4.91485 9.18829L4.81391 9.26L4.7641 9.29563L4.73377 9.31615L4.65259 9.35689L4.15058 9.59309L3.90568 9.70834C3.87363 9.72584 3.806 9.74988 3.80367 9.76171L3.79165 9.79796C3.77132 9.88463 3.69603 10.0004 3.75377 10.0873L3.79718 10.2183C3.8071 10.2308 3.79005 10.2354 3.82202 10.2543L3.91475 10.31L4.09702 10.4195L4.22317 10.4709C4.40993 10.5402 4.59279 10.6196 4.77096 10.7086L5.02083 10.8849C5.22257 11.0361 5.41569 11.1986 5.59928 11.3714C6.06919 11.8325 6.50444 12.3276 6.90151 12.8528C7.36531 13.4775 7.79104 14.1296 8.17638 14.8055C8.36726 15.1596 8.56071 15.5162 8.72543 15.8826C8.81584 16.0628 8.89026 16.2477 8.964 16.4315L9.07604 16.7058C9.10309 16.7764 9.12561 16.8487 9.14348 16.9223L9.21723 17.1829L9.38737 17.7838C9.43533 17.9475 9.49339 18.108 9.5612 18.2644L9.73408 18.7049C9.76721 18.7558 9.78585 18.7509 9.81209 18.7774C9.83891 18.7841 9.85406 18.8449 9.89361 18.807L9.96408 18.7412L9.99852 18.7077L10.0814 18.5782L10.2516 18.3075C10.2831 18.0022 10.3464 17.7009 10.4406 17.4088L10.5455 17.0296L10.5975 16.8419L10.6234 16.7485L10.6432 16.6976C10.753 16.4323 10.8406 16.1664 10.961 15.9196C11.1701 15.4508 11.403 14.993 11.6589 14.5479C12.0264 13.8971 12.441 13.2739 12.8994 12.6835C13.4449 11.9472 14.0905 11.2907 14.8176 10.733C15.0723 10.5602 15.3431 10.4123 15.6262 10.2915" fill="#F7B471"/>
<path d="M15.592 10.01C15.5945 10.0098 15.5969 10.0087 15.5986 10.0068C15.6003 10.005 15.6013 10.0025 15.6013 10C15.6013 9.99746 15.6003 9.99501 15.5986 9.99315C15.5969 9.99129 15.5945 9.99015 15.592 9.98996" fill="#F7B471"/>
</svg>
