<svg width="24" height="24" viewBox="0 0 24 24" fill="none" xmlns="http://www.w3.org/2000/svg">
  <path d="M12 2C6.48 2 2 6.48 2 12C2 17.52 6.48 22 12 22C17.52 22 22 17.52 22 12C22 6.48 17.52 2 12 2ZM16.64 8.8C16.49 10.38 15.84 14.22 15.51 15.99C15.37 16.74 15.09 16.99 14.83 17.02C14.25 17.07 13.81 16.64 13.25 16.27C12.37 15.69 11.87 15.33 11.02 14.77C10.03 14.12 10.67 13.76 11.24 13.18C11.39 13.03 13.95 10.7 14 10.49C14.0069 10.4476 14.0035 10.4043 13.99 10.364C13.9766 10.3236 13.9536 10.2877 13.923 10.259C13.86 10.2 13.77 10.22 13.69 10.23C13.6 10.24 11.89 11.34 8.57 13.52C8.12 13.82 7.72 13.97 7.36 13.96C6.96 13.95 6.2 13.74 5.64 13.55C4.93 13.32 4.38 13.2 4.42 12.8C4.44 12.59 4.71 12.38 5.24 12.17C8.82 10.55 11.16 9.49 12.25 8.98C15.32 7.52 16.01 7.3 16.47 7.3C16.56 7.3 16.77 7.32 16.91 7.44C17.03 7.54 17.06 7.68 17.07 7.78C17.06 7.86 17.08 8.08 16.64 8.8Z" fill="#0088CC"/>
</svg>

