<svg width="29" height="29" viewBox="0 0 29 29" fill="none" xmlns="http://www.w3.org/2000/svg">
<path d="M14.4933 2.41666C12.1034 2.41666 9.7672 3.12534 7.78011 4.45307C5.79302 5.78081 4.24427 7.66797 3.32971 9.87591C2.41515 12.0838 2.17586 14.5134 2.6421 16.8573C3.10833 19.2013 4.25916 21.3543 5.94904 23.0442C7.63893 24.7341 9.79197 25.8849 12.1359 26.3512C14.4798 26.8174 16.9094 26.5781 19.1173 25.6635C21.3253 24.749 23.2124 23.2002 24.5402 21.2131C25.8679 19.226 26.5766 16.8899 26.5766 14.5C26.5767 12.9132 26.2643 11.3418 25.6571 9.87575C25.0499 8.40967 24.1598 7.07756 23.0378 5.9555C21.9157 4.83343 20.5836 3.94338 19.1175 3.33619C17.6514 2.72899 16.0801 2.41653 14.4933 2.41666ZM18.3352 20.7259C18.2899 20.8387 18.2211 20.9405 18.1333 21.0245C18.0455 21.1085 17.9408 21.1728 17.8262 21.213C17.7115 21.2532 17.5896 21.2684 17.4685 21.2577C17.3475 21.2469 17.2302 21.2104 17.1244 21.1506L13.8442 18.6018L11.7389 20.5441C11.69 20.5802 11.6329 20.6034 11.5727 20.6116C11.5125 20.6198 11.4512 20.6128 11.3945 20.5911L11.7981 16.9801L11.811 16.9903L11.8193 16.919C11.8193 16.919 17.722 11.545 17.9624 11.316C18.2059 11.0876 18.1255 11.0381 18.1255 11.0381C18.1394 10.7595 17.6887 11.0381 17.6887 11.0381L9.86775 16.0696L6.6107 14.9604C6.6107 14.9604 6.11045 14.7809 6.06333 14.3864C6.01378 13.9949 6.627 13.7822 6.627 13.7822L19.5767 8.63776C19.5767 8.63776 20.6413 8.16346 20.6413 8.94891L18.3352 20.7259Z" fill="#4F9AB6"/>
</svg>
