<svg width="39" height="39" viewBox="0 0 39 39" fill="none" xmlns="http://www.w3.org/2000/svg">
<path d="M19.4908 3.25C16.2768 3.25 13.1351 4.20305 10.4628 5.98862C7.79046 7.77419 5.70766 10.3121 4.47773 13.2814C3.24781 16.2507 2.92601 19.518 3.55301 22.6702C4.18002 25.8224 5.72769 28.7179 8.00029 30.9905C10.2729 33.2631 13.1684 34.8108 16.3206 35.4378C19.4728 36.0648 22.7401 35.743 25.7094 34.513C28.6787 33.2831 31.2166 31.2003 33.0022 28.528C34.7877 25.8557 35.7408 22.7139 35.7408 19.5C35.741 17.366 35.3208 15.2528 34.5042 13.2812C33.6876 11.3096 32.4906 9.51811 30.9817 8.00912C29.4727 6.50013 27.6812 5.30317 25.7096 4.4866C23.738 3.67002 21.6248 3.24982 19.4908 3.25ZM24.6575 27.8728C24.5967 28.0244 24.5041 28.1613 24.3861 28.2743C24.268 28.3873 24.1271 28.4737 23.973 28.5278C23.8188 28.5819 23.6548 28.6024 23.492 28.5879C23.3293 28.5735 23.1715 28.5244 23.0292 28.4439L18.6179 25.0162L15.7866 27.6283C15.7209 27.6768 15.6441 27.708 15.5631 27.7191C15.4822 27.7301 15.3998 27.7207 15.3235 27.6915L15.8662 22.8353L15.8836 22.8491L15.8947 22.7532C15.8947 22.7532 23.8328 15.526 24.1562 15.2181C24.4836 14.9109 24.3756 14.8443 24.3756 14.8443C24.3942 14.4697 23.7881 14.8443 23.7881 14.8443L13.2703 21.6109L8.89011 20.1191C8.89011 20.1191 8.21735 19.8778 8.15398 19.3472C8.08735 18.8207 8.91203 18.5347 8.91203 18.5347L26.3272 11.6163C26.3272 11.6163 27.7588 10.9785 27.7588 12.0347L24.6575 27.8728Z" fill="black" fill-opacity="0.75"/>
</svg>
