<svg width="27" height="27" viewBox="0 0 27 27" fill="none" xmlns="http://www.w3.org/2000/svg">
<path d="M13.5 27C20.9558 27 27 20.9558 27 13.5C27 6.04416 20.9558 0 13.5 0C6.04416 0 0 6.04416 0 13.5C0 20.9558 6.04416 27 13.5 27Z" fill="#4F9AB6"/>
<path fill-rule="evenodd" clip-rule="evenodd" d="M12.9886 19.4221H14.0485C14.0485 19.4221 14.3702 19.3852 14.5337 19.2111C14.6866 19.0477 14.6813 18.7471 14.6813 18.7471C14.6813 18.7471 14.6603 17.3232 15.3194 17.1176C15.9681 16.9119 16.8065 18.4887 17.6925 19.1004C18.3622 19.5592 18.8685 19.459 18.8685 19.459L21.2362 19.4273C21.2362 19.4273 22.4755 19.3535 21.8849 18.3779C21.8374 18.2988 21.5421 17.6555 20.1235 16.3424C18.6417 14.966 18.8368 15.1875 20.6245 12.8039C21.7161 11.3537 22.1485 10.4678 22.0114 10.0881C21.8796 9.72422 21.0833 9.82442 21.0833 9.82442L18.4149 9.84024C18.4149 9.84024 18.2198 9.81387 18.0722 9.89824C17.9298 9.98262 17.8349 10.183 17.8349 10.183C17.8349 10.183 17.413 11.3063 16.8487 12.2607C15.6622 14.2752 15.1876 14.3807 14.9925 14.2594C14.539 13.9641 14.655 13.0887 14.655 12.4611C14.655 10.51 14.9503 9.69258 14.0802 9.48164C13.7901 9.41309 13.5792 9.36563 12.8356 9.36035C11.8864 9.34981 11.0796 9.36035 10.6208 9.58711C10.3202 9.73477 10.0829 10.067 10.2253 10.0828C10.3993 10.1039 10.8001 10.1936 11.011 10.4783C11.2853 10.8475 11.2747 11.6859 11.2747 11.6859C11.2747 11.6859 11.4329 13.9852 10.9056 14.2699C10.547 14.465 10.0513 14.0643 8.99658 12.2397C8.45341 11.301 8.04736 10.2674 8.04736 10.2674C8.04736 10.2674 7.96826 10.0723 7.82588 9.97207C7.65185 9.84551 7.41455 9.8086 7.41455 9.8086L4.8833 9.82442C4.8833 9.82442 4.50361 9.83496 4.36123 9.99844C4.23994 10.1461 4.35068 10.452 4.35068 10.452C4.35068 10.452 6.33349 15.0926 8.57998 17.4287C10.6524 19.5645 12.9886 19.4221 12.9886 19.4221Z" fill="white"/>
</svg>
