<svg width="45" height="46" viewBox="0 0 45 46" fill="none" xmlns="http://www.w3.org/2000/svg">
<path d="M42.8688 1.98065C40.2635 -0.660216 35.7635 -0.660216 32.9214 1.98065L13.7372 20.9469C12.0793 22.6274 10.8951 24.7881 10.4214 27.1889L9.47407 32.4706C9.23723 33.1909 9.47407 34.1512 10.1846 34.6313C10.6583 35.1115 11.132 35.3516 11.8425 35.3516C12.0793 35.3516 12.0793 35.3516 12.3162 35.3516L17.5267 34.3913C19.8951 33.9111 22.0267 32.7107 23.6846 31.0302L42.8688 11.8239C44.2899 10.6235 45.0004 8.70285 45.0004 6.78222C45.0004 4.86159 44.2899 3.18104 42.8688 1.98065ZM20.6056 27.429C19.6583 28.3893 18.2372 29.1095 16.8162 29.3496L14.9214 29.8298L15.3951 28.1492C15.632 26.7088 16.3425 25.5084 17.5267 24.308L32.2109 9.66317L35.5267 12.7842L20.6056 27.429ZM39.553 8.46277L38.6056 9.42309L35.2899 6.30206L36.2372 5.34175C36.7109 4.86159 37.4214 4.62151 37.8951 4.62151C38.6056 4.62151 39.0793 4.86159 39.553 5.34175C40.0267 5.82191 40.2635 6.30206 40.2635 6.78222C40.2635 7.26238 40.2635 7.98261 39.553 8.46277Z" fill="black"/>
<path d="M40.2632 18.7856C38.8421 18.7856 37.8947 19.746 37.8947 21.1864V33.4304C37.8947 37.5118 34.8158 40.6328 30.7895 40.6328H11.8421C7.81579 40.6328 4.73684 37.5118 4.73684 33.4304V14.2241C4.73684 10.1428 7.81579 7.02179 11.8421 7.02179H23.6842C25.1053 7.02179 26.0526 6.06147 26.0526 4.621C26.0526 3.18053 25.1053 2.22021 23.6842 2.22021H11.8421C5.21053 2.22021 0 7.50195 0 14.2241V33.4304C0 40.1526 5.21053 45.4344 11.8421 45.4344H30.7895C37.4211 45.4344 42.6316 40.1526 42.6316 33.4304V21.1864C42.6316 19.986 41.6842 18.7856 40.2632 18.7856Z" fill="black"/>
</svg>
